<svg xmlns="http://www.w3.org/2000/svg" xmlns:xlink="http://www.w3.org/1999/xlink" version="1.1" viewBox="0 0 300 300"><defs><linearGradient id="a" x1="106.26" x2="193.73" y1="150" y2="150" gradientTransform="rotate(45 149.998 150.001)" gradientUnits="userSpaceOnUse"><stop offset="0" stop-color="#f9f048"/><stop offset=".6" stop-color="#0fd851"/></linearGradient><linearGradient xlink:href="#a" id="b" x1="0" x2="300" y1="150" y2="150"/></defs><rect fill="url(#a)" width="115" height="21" x="92.5" y="139.5" rx="10.5" ry="10.5" transform="rotate(-45 150.001 149.998)"/><path d="M221.61 0c-20.06 0-40.13 7.66-55.44 22.97l-46.5 46.5c-4.1 4.1-4.1 10.75 0 14.85s10.75 4.1 14.85 0l46.5-46.5c22.38-22.38 58.79-22.39 81.17 0 22.38 22.38 22.38 58.8 0 81.17l-46.5 46.5c-4.1 4.1-4.1 10.75 0 14.85s10.75 4.1 14.85 0l46.5-46.5c30.62-30.62 30.62-80.26 0-110.87C261.73 7.65 241.67 0 221.61 0ZM37.81 181.02l46.51-46.51c4.1-4.1 4.1-10.75 0-14.85s-10.75-4.1-14.85 0l-46.51 46.51c-30.61 30.61-30.61 80.25 0 110.86C38.27 292.34 58.34 299.99 78.4 300c20.07 0 40.12-7.65 55.43-22.96l46.51-46.51c4.1-4.1 4.1-10.75 0-14.85s-10.75-4.1-14.85 0l-46.51 46.51c-22.37 22.37-58.79 22.37-81.17 0-22.38-22.38-22.37-58.79 0-81.16Z" fill="url(#b)"/></svg>