<?xml version="1.0" encoding="UTF-8"?>
<svg id="Layer_1" xmlns="http://www.w3.org/2000/svg" version="1.1" xmlns:xlink="http://www.w3.org/1999/xlink" viewBox="0 0 300 300">
  <!-- Generator: Adobe Illustrator 29.5.0, SVG Export Plug-In . SVG Version: 2.1.0 Build 137)  -->
  <defs>
    <style>
      .st0 {
        fill: url(#linear-gradient1);
      }

      .st1 {
        fill: url(#linear-gradient);
      }
    </style>
    <linearGradient id="linear-gradient" x1="106.26" y1="150" x2="193.73" y2="150" gradientTransform="translate(150 -62.13) rotate(45)" gradientUnits="userSpaceOnUse">
      <stop offset="0" stop-color="#f4eb43"/>
      <stop offset=".6" stop-color="#0ad34c"/>
    </linearGradient>
    <linearGradient id="linear-gradient1" x1="0" y1="150" x2="300" y2="150" gradientTransform="matrix(1,0,0,1,0,0)" xlink:href="#linear-gradient"/>
  </defs>
  <rect class="st1" x="92.5" y="139.5" width="115" height="21" rx="10.5" ry="10.5" transform="translate(-62.13 150) rotate(-45)"/>
  <path class="st0" d="M221.61,0c-20.06,0-40.13,7.66-55.44,22.97l-46.5,46.5c-4.1,4.1-4.1,10.75,0,14.85s10.75,4.1,14.85,0l46.5-46.5c22.38-22.38,58.79-22.39,81.17,0,22.38,22.38,22.38,58.8,0,81.17l-46.5,46.5c-4.1,4.1-4.1,10.75,0,14.85,4.1,4.1,10.75,4.1,14.85,0l46.5-46.5c30.62-30.62,30.62-80.26,0-110.87C261.73,7.65,241.67,0,221.61,0ZM37.81,181.02l46.51-46.51c4.1-4.1,4.1-10.75,0-14.85s-10.75-4.1-14.85,0l-46.51,46.51c-30.61,30.61-30.61,80.25,0,110.86,15.31,15.31,35.38,22.96,55.44,22.97,20.07,0,40.12-7.65,55.43-22.96l46.51-46.51c4.1-4.1,4.1-10.75,0-14.85s-10.75-4.1-14.85,0l-46.51,46.51c-22.37,22.37-58.79,22.37-81.17,0-22.38-22.38-22.37-58.79,0-81.16Z"/>
</svg>